# xmcd
#
# Track frame offsets: 
#        150
#        22222
#        40138
#        55176
#        70912
#        95265
#        117938
#        136495
#        161467
#        178306
#        199515
#        213253
#        229522
#        250806
#        269810
#        286612
#        301737
#        320458
#        344485
#
# Disc length: 4670 seconds
#
# Revision: 0
# Processed by: cddbd v1.5.2PL0 Copyright (c) Steve Scherf et al.
# Submitted via: ExactAudioCopy v0.99pb5
#
DISCID=14123c13
DTITLE=Various Artist - Sulaika Oriental III
DYEAR=2008
DGENRE=Folklore
TTITLE0=Tikke Tikke Boom
TTITLE1=The Vision
TTITLE2=Ya Salam al Baladi
TTITLE3=May Warad
TTITLE4=Habibi aini
TTITLE5=Nar el Ghera
TTITLE6=Midnight Fantasy
TTITLE7=Chic Chac Choc
TTITLE8=Hisham
TTITLE9=Into the night
TTITLE10=Naguas Drum - Amar 14
TTITLE11=Ammounafi Alsaid - Stocktanz
TTITLE12=Raks Jamila
TTITLE13=Redas Flower I
TTITLE14=Redas Flower Drum
TTITLE15=Kon Kamenepe - Zigeunertanz 3
TTITLE16=Beni u Benak
TTITLE17=Kal Ho Naa Ho 1
TTITLE18=Finale
EXTD=
EXTT0=
EXTT1=
EXTT2=
EXTT3=
EXTT4=
EXTT5=
EXTT6=
EXTT7=
EXTT8=
EXTT9=
EXTT10=
EXTT11=
EXTT12=
EXTT13=
EXTT14=
EXTT15=
EXTT16=
EXTT17=
EXTT18=
PLAYORDER=
